<svg width="20" height="20" viewBox="0 0 20 20" fill="none" xmlns="http://www.w3.org/2000/svg">
<path d="M6 9.5V5.5C6 4.43913 6.42143 3.42172 7.17157 2.67157C7.92172 1.92143 8.93913 1.5 10 1.5C11.0609 1.5 12.0783 1.92143 12.8284 2.67157C13.5786 3.42172 14 4.43913 14 5.5V9.5" stroke="#161412" stroke-width="1.25" stroke-linecap="round"/>
<path d="M1.69399 10.168C1.83899 8.427 1.91199 7.557 2.48599 7.028C3.05999 6.5 3.934 6.5 5.68099 6.5H14.32C16.066 6.5 16.94 6.5 17.514 7.028C18.088 7.556 18.161 8.427 18.306 10.168L18.82 16.334C18.904 17.347 18.946 17.854 18.65 18.177C18.352 18.5 17.844 18.5 16.826 18.5H3.17399C2.15699 18.5 1.64799 18.5 1.35099 18.177C1.05399 17.854 1.09599 17.347 1.18099 16.334L1.69399 10.168Z" stroke="#161412" stroke-width="1.25"/>
</svg>
