<svg width="20" height="21" viewBox="0 0 20 21" fill="none" xmlns="http://www.w3.org/2000/svg">
<g clip-path="url(#clip0_2880_395)">
<path d="M16.6667 4.66667C16.8877 4.66667 17.0996 4.75447 17.2559 4.91075C17.4122 5.06703 17.5 5.27899 17.5 5.50001C17.5 5.72102 17.4122 5.93298 17.2559 6.08926C17.0996 6.24554 16.8877 6.33334 16.6667 6.33334H15.8333L15.8308 6.39251L15.0533 17.285C15.0234 17.7055 14.8352 18.099 14.5268 18.3863C14.2183 18.6736 13.8124 18.8333 13.3908 18.8333H6.60833C6.18678 18.8333 5.78089 18.6736 5.4724 18.3863C5.16392 18.099 4.97576 17.7055 4.94583 17.285L4.16833 6.39334C4.16707 6.37336 4.16651 6.35335 4.16667 6.33334H3.33333C3.11232 6.33334 2.90036 6.24554 2.74408 6.08926C2.5878 5.93298 2.5 5.72102 2.5 5.50001C2.5 5.27899 2.5878 5.06703 2.74408 4.91075C2.90036 4.75447 3.11232 4.66667 3.33333 4.66667H16.6667ZM14.1642 6.33334H5.83583L6.60917 17.1667H13.3908L14.1642 6.33334ZM11.6667 2.16667C11.8877 2.16667 12.0996 2.25447 12.2559 2.41075C12.4122 2.56703 12.5 2.77899 12.5 3.00001C12.5 3.22102 12.4122 3.43298 12.2559 3.58926C12.0996 3.74554 11.8877 3.83334 11.6667 3.83334H8.33333C8.11232 3.83334 7.90036 3.74554 7.74408 3.58926C7.5878 3.43298 7.5 3.22102 7.5 3.00001C7.5 2.77899 7.5878 2.56703 7.74408 2.41075C7.90036 2.25447 8.11232 2.16667 8.33333 2.16667H11.6667Z" fill="#454545"/>
</g>
<defs>
<clipPath id="clip0_2880_395">
<rect width="20" height="20" fill="white" transform="translate(0 0.5)"/>
</clipPath>
</defs>
</svg>
