<svg width="22" height="30" viewBox="0 0 22 30" fill="none" xmlns="http://www.w3.org/2000/svg">
<path fill-rule="evenodd" clip-rule="evenodd" d="M8.74784 8.03011C8.53819 7.59372 8.33955 7.15152 8.14267 6.71326C8.13093 6.68714 8.1182 6.66031 8.10529 6.63308C7.99906 6.40913 7.88032 6.15883 8.20125 6.06522L9.11545 5.80501C9.74407 5.62604 10.372 5.44726 11 5.26906C11.4122 5.1521 11.8243 5.03401 12.2364 4.9159C13.305 4.60959 14.374 4.30319 15.4473 4.01622C15.5957 3.97494 15.6113 3.9089 15.5801 3.76855C15.502 3.4961 15.4317 3.21541 15.3693 2.93471C15.3458 2.81913 15.2834 2.76959 15.1741 2.75308C15.0062 2.72418 14.8363 2.69322 14.6665 2.66227C14.4967 2.63131 14.3269 2.60035 14.159 2.57145C13.9212 2.5309 13.9178 2.04766 14.1668 2.01005C14.4479 1.96878 14.7289 1.91925 15.0569 1.86146C14.9437 1.60553 14.8324 1.35785 14.7211 1.11017C14.6099 0.862494 14.4986 0.614817 14.3854 0.358886C14.5238 0.293314 14.6534 0.227742 14.7867 0.160287C14.8716 0.117335 14.958 0.0736186 15.0491 0.028653C15.5567 1.25052 16.0564 2.45587 16.5639 3.7025C16.6098 3.63133 16.6546 3.56379 16.6981 3.49824L16.6986 3.4975C16.9535 3.11341 17.1938 2.71964 17.4342 2.32585C17.6631 1.95089 17.892 1.57591 18.1334 1.20924C18.2427 1.04412 18.4145 0.879005 18.5863 0.821214C19.5936 0.474469 20.6086 0.135979 21.6706 0.0121416C21.9595 -0.0208821 21.9907 -0.00436976 21.9985 0.29284C22.0215 0.963842 21.7756 1.58681 21.3973 2.11738C20.8507 2.89343 20.1401 3.46308 19.3437 3.90064C18.7768 4.2066 18.1964 4.47478 17.6128 4.74446L17.5423 4.77707C17.3777 4.85315 17.2129 4.92947 17.0481 5.00692C16.8841 5.08122 16.806 5.15553 16.845 5.37018C17.04 6.33205 17.2295 7.29964 17.4136 8.26343C17.4508 8.45776 17.4877 8.65194 17.5244 8.84589C17.5975 9.23262 17.6752 9.61936 17.753 10.0064C17.9243 10.8585 18.0958 11.712 18.2193 12.5693C18.5082 14.5837 18.7503 16.5981 18.9767 18.6208C19.0532 19.3015 19.0829 19.9932 19.1124 20.6824C19.1191 20.8375 19.1257 20.9924 19.1329 21.1471C19.2016 22.4237 19.2555 23.7082 19.309 24.9852L19.3125 25.0686L19.4062 27.1532L19.4999 29.2378L19.5233 29.7332C19.5311 29.8405 19.4921 29.8983 19.3827 29.8983C19.1016 29.9065 18.8127 29.923 18.5316 29.9395C18.3989 29.9478 18.3911 29.857 18.3833 29.7579L18.377 29.6797C18.301 28.7311 18.2244 27.7752 18.1256 26.8271C18.0914 26.5165 18.0154 26.2059 17.9394 25.8953L17.9313 25.862L17.907 25.7621L16.8997 21.6259C16.8401 21.3906 16.7825 21.1553 16.7239 20.9157L16.7236 20.9148L16.7024 20.8282C16.6527 20.6251 16.6019 20.4185 16.5483 20.2059C16.4695 20.264 16.3937 20.3228 16.319 20.3807C16.1493 20.5123 15.9854 20.6394 15.8065 20.7425C15.4552 20.9489 15.338 21.2296 15.4005 21.6507C15.4263 21.8369 15.4261 22.0255 15.4258 22.2139C15.4257 22.3681 15.4255 22.5221 15.4395 22.6744C15.4942 23.1615 15.5645 23.6486 15.6582 24.1274C15.8065 24.9448 15.9549 25.7538 16.1423 26.5629C16.3168 27.32 16.5098 28.0722 16.7036 28.8271L16.7038 28.828C16.7614 29.0523 16.819 29.2769 16.8763 29.502C16.8841 29.5433 16.8919 29.5845 16.9075 29.6176C16.9856 29.8075 16.9075 29.8487 16.7357 29.857C16.478 29.8735 16.2204 29.9065 15.9627 29.9395C15.8378 29.9561 15.7831 29.9148 15.7363 29.7827C15.3771 28.7012 15.0179 27.6279 14.6509 26.5464C14.5688 26.3028 14.4853 26.0599 14.4019 25.8171C14.1998 25.2288 13.9978 24.641 13.8154 24.0449C13.6629 23.5476 13.5362 23.0395 13.4102 22.5337L13.41 22.5329L13.4095 22.531L13.4092 22.5298C13.3807 22.4155 13.3522 22.3013 13.3235 22.1873C13.2923 22.0717 13.2688 22.0222 13.1439 22.0635C12.4378 22.2849 11.7225 22.4629 11 22.6044C10.6486 22.6732 10.2941 22.7176 9.94002 22.7619C9.62213 22.8017 9.30457 22.8415 8.98989 22.8989C8.91181 22.9071 8.81811 22.9649 8.77907 23.031C7.84207 24.6574 6.5537 25.8627 4.87491 26.5892C4.78132 26.6288 4.74257 26.6737 4.74273 26.7617C4.74269 26.7841 4.7452 26.8093 4.74998 26.838C4.90615 27.8039 5.05451 28.7699 5.19505 29.7358C5.19955 29.7739 5.20146 29.8119 5.20376 29.8579C5.20544 29.8914 5.20741 29.9291 5.21067 29.9741C5.0938 29.9769 4.97784 29.9807 4.86247 29.9844C4.63868 29.9917 4.41714 29.9989 4.19559 29.9989C4.15655 29.9989 4.10189 29.9081 4.09408 29.8503L4.03385 29.554C3.82761 28.5395 3.62251 27.5306 3.43038 26.5149C3.42575 26.4937 3.42356 26.4705 3.42351 26.4464C3.42357 26.3484 3.45853 26.2336 3.50846 26.161C3.61444 26.0145 3.72058 25.8684 3.82685 25.7225C4.05158 25.4154 4.27742 25.11 4.50303 24.8049C4.89331 24.2771 5.28295 23.7501 5.66511 23.2172C5.69937 23.1737 5.73524 23.1225 5.78207 23.0557C5.80264 23.0263 5.82534 22.9939 5.85095 22.9578L5.85019 22.9577L5.85095 22.9567C5.75846 22.9515 5.66977 22.948 5.58368 22.9445C5.3936 22.9369 5.21624 22.9299 5.03889 22.9071C4.75779 22.8658 4.59382 22.9649 4.42203 23.2126C3.86764 24.0217 3.18051 24.6904 2.35283 25.161C2.13664 25.2813 1.91216 25.3797 1.67938 25.4817C1.59268 25.5197 1.50483 25.5582 1.41583 25.5985V25.5996C1.52743 26.048 1.63982 26.4981 1.75249 26.9492L1.75372 26.9542L1.75511 26.9597L1.75571 26.9621L1.80348 27.1534L1.80405 27.1557C2.02905 28.0566 2.2551 28.9617 2.47776 29.8668C2.40795 29.8668 2.33918 29.8671 2.27126 29.8674L2.19182 29.8678C1.9167 29.8694 1.65456 29.8709 1.39241 29.8585C1.36118 29.8585 1.31433 29.7595 1.29871 29.7017C1.18472 29.3206 1.07228 28.9388 0.959815 28.557C0.658641 27.5346 0.357342 26.5117 0.0259552 25.4995C0.00884633 25.4452 6.79723e-05 25.3953 3.92784e-07 25.3475C0.000117358 25.2647 0.0263312 25.1878 0.0806131 25.1043C0.790586 24.0814 1.50056 23.0503 2.21053 22.0191L2.21148 22.0178L2.21228 22.0166C2.25643 21.9559 2.27561 21.9032 2.27549 21.8464C2.27559 21.8024 2.26405 21.7561 2.24351 21.7018C1.74378 20.4056 1.2909 19.0929 1.04884 17.7142C1.04456 17.6893 1.04193 17.6624 1.03924 17.6351C1.03307 17.5722 1.02663 17.5065 0.999247 17.4549L0.994185 17.4346C0.994185 17.4296 0.991302 17.4276 0.982035 17.4213L0.978837 17.4191C0.975234 17.4167 0.970841 17.4138 0.965567 17.4099C0.962211 17.4067 0.958687 17.4037 0.954984 17.4007C0.767638 17.7061 0.580288 18.0115 0.377329 18.3334C0.342893 18.2827 0.314157 18.2304 0.290691 18.1767C0.197076 17.958 0.200644 17.7296 0.244587 17.5172C0.274323 17.3485 0.324646 17.1898 0.39329 17.042C0.517852 16.7931 0.692083 16.5678 0.875959 16.4011C0.904201 16.3762 0.933208 16.3519 0.962952 16.3283C1.63313 15.7945 2.30871 15.2634 2.98492 14.7319C3.45899 14.3593 3.93336 13.9864 4.40641 13.6122C4.46889 13.5629 4.53087 13.513 4.59258 13.4627L4.721 13.3592C5.34476 12.8561 5.97693 12.3462 6.74605 12.1334C6.86093 12.1016 6.97886 12.0765 7.10028 12.059C8.12004 11.9133 9.13709 11.7584 10.1546 11.6036C10.8667 11.4952 11.5791 11.3867 12.2928 11.2814C12.5114 11.2483 12.6285 11.1658 12.7066 10.9429C12.918 10.3026 13.1419 9.6711 13.3662 9.03877L13.3665 9.03798C13.4486 8.80636 13.5308 8.57462 13.6124 8.34228C13.6426 8.21448 13.568 8.20758 13.4745 8.19892C13.4584 8.19743 13.4418 8.19589 13.425 8.19367C12.6832 8.18542 11.9414 8.17961 11.1996 8.17381C10.4579 8.168 9.71606 8.1622 8.97428 8.15394C8.89619 8.15394 8.77907 8.09615 8.74784 8.03011ZM7.56878 14.5946V14.6111H8.09194C8.26372 14.6111 8.33399 14.5286 8.34961 14.3304C8.35709 14.1486 8.24282 14.1409 8.13025 14.1333L8.11536 14.1323C8.06223 14.1276 8.00882 14.1226 7.95524 14.1176C7.72533 14.0962 7.49223 14.0745 7.26426 14.0745C6.85822 14.0745 6.45219 14.0827 6.05397 14.124C5.98888 14.1303 5.93277 14.2124 5.87882 14.2913C5.86158 14.3165 5.84455 14.3414 5.82753 14.3634C5.81972 14.38 5.86657 14.4708 5.8978 14.479C6.03054 14.5286 6.16328 14.5781 6.30383 14.5864C6.62643 14.5988 6.94463 14.5972 7.25842 14.5956C7.36235 14.5951 7.46581 14.5946 7.56878 14.5946ZM4.7695 16.3771C4.87597 16.3321 4.97618 16.2898 5.07012 16.2375C5.23989 16.1427 5.40835 16.0437 5.57711 15.9445C5.81973 15.8019 6.06297 15.659 6.31164 15.5275C6.46781 15.445 6.5537 15.3541 6.49123 15.189C6.42096 14.9991 6.26463 15.0405 6.13189 15.1066C5.58536 15.412 5.03883 15.7174 4.50012 16.0394C4.42984 16.0807 4.38299 16.221 4.36737 16.3201C4.36152 16.3448 4.43472 16.3835 4.50792 16.4222C4.53232 16.4351 4.55673 16.448 4.5782 16.4604C4.64407 16.4301 4.70784 16.4032 4.7695 16.3771ZM6.82688 16.7747C6.74939 16.7671 6.67497 16.7598 6.60055 16.7659C6.4756 16.7762 6.35065 16.786 6.2257 16.7958C5.85092 16.8252 5.47614 16.8546 5.10136 16.898C4.99204 16.9062 4.88272 16.9805 4.79683 17.0466C4.7656 17.0714 4.78902 17.2365 4.82026 17.253C4.93738 17.2943 5.07012 17.3355 5.19505 17.3273C5.43711 17.3067 5.67721 17.2798 5.91731 17.253C6.15742 17.2262 6.39753 17.1993 6.63959 17.1787C6.87384 17.1539 6.93631 17.0879 6.91288 16.7824C6.88371 16.7802 6.85509 16.7774 6.82688 16.7747ZM6.66302 15.9073C6.69829 15.9046 6.73112 15.9037 6.76204 15.9028C6.82695 15.9009 6.88342 15.8993 6.93631 15.8825L8.29495 15.4119C8.46673 15.3541 8.63852 15.2881 8.80249 15.2138C8.83497 15.2023 8.85244 15.1592 8.87051 15.1145C8.8785 15.0947 8.88661 15.0747 8.89619 15.0569C8.84934 15.0322 8.79468 15.0074 8.74003 14.9909C8.7192 14.9854 8.69838 14.9946 8.67756 15.0037C8.66715 15.0083 8.65674 15.0129 8.64633 15.0157C8.50507 15.064 8.36326 15.1117 8.22134 15.1595C8.04807 15.2178 7.87574 15.2801 7.70338 15.3424C7.47359 15.4255 7.24377 15.5086 7.0117 15.5823C6.87294 15.6263 6.71972 15.675 6.66302 15.9073ZM6.95482 13.5475C7.0098 13.5316 7.05895 13.5174 7.10809 13.4966L7.26659 13.4206C7.55526 13.2825 7.83922 13.1466 8.12317 12.993C8.16726 12.9671 8.19291 12.9087 8.2194 12.8484C8.23513 12.8126 8.25116 12.7761 8.27153 12.7453C8.24542 12.7403 8.21787 12.7322 8.1902 12.7241C8.12682 12.7055 8.06277 12.6868 8.01385 12.704C7.7903 12.79 7.57849 12.8884 7.36314 12.9884L7.26426 13.0343C7.1159 13.1086 6.95973 13.1911 6.82699 13.2902C6.77233 13.3315 6.74891 13.4223 6.7411 13.4966C6.72917 13.5092 6.77648 13.5363 6.81689 13.5594C6.82937 13.5665 6.8412 13.5733 6.85042 13.5791C6.88804 13.5669 6.92244 13.5569 6.95482 13.5475ZM9.07732 17.4389C9.12061 17.48 9.16293 17.5201 9.20852 17.5254C9.38509 17.5321 9.56372 17.5355 9.7414 17.5388C9.83612 17.5406 9.93057 17.5424 10.0243 17.5447C10.1631 17.548 10.3007 17.5514 10.4344 17.5337C10.4827 17.528 10.5272 17.4835 10.5706 17.44C10.5905 17.4202 10.6101 17.4006 10.6296 17.3851C10.6141 17.371 10.5978 17.3535 10.5813 17.3357C10.54 17.2911 10.4969 17.2447 10.4579 17.2447C10.044 17.2282 9.63017 17.22 9.21633 17.2282C9.16948 17.2282 9.12263 17.2723 9.07578 17.3163C9.05236 17.3383 9.02893 17.3603 9.00551 17.3768C9.03018 17.3942 9.0539 17.4167 9.07732 17.4389ZM4.82026 15.2221C4.47669 15.2386 3.23517 15.7174 3.01654 15.899C2.99 15.9215 2.97068 15.9554 2.94631 15.9981C2.93483 16.0183 2.92222 16.0404 2.90722 16.0641C2.93705 16.0641 2.96231 16.0654 2.9839 16.0664C3.01882 16.068 3.04408 16.0693 3.06339 16.0641C3.19135 16.0132 3.31887 15.9627 3.44605 15.9123L3.44707 15.9119C3.85504 15.7503 4.25957 15.59 4.66409 15.4202C4.70256 15.4028 4.72943 15.3608 4.76648 15.3029C4.78206 15.2785 4.79945 15.2514 4.82026 15.2221ZM6.79576 18.2189V18.2272C6.84065 18.2272 6.88555 18.2277 6.93044 18.2282C7.06514 18.2298 7.19983 18.2313 7.33453 18.2189C7.3697 18.2136 7.40165 18.1809 7.43451 18.1473C7.45272 18.1287 7.47121 18.1098 7.4907 18.0951C7.47508 18.0813 7.45946 18.063 7.44385 18.0446C7.41262 18.0079 7.38138 17.9712 7.35015 17.9712C6.99097 17.9547 6.63178 17.9465 6.26479 17.9465C6.2229 17.9465 6.18451 17.9799 6.14493 18.0144C6.1255 18.0313 6.10577 18.0485 6.0852 18.0621C6.10471 18.0775 6.12345 18.0962 6.14215 18.1149C6.18333 18.1559 6.22427 18.1967 6.2726 18.2024C6.40168 18.2272 6.53516 18.2241 6.66643 18.221C6.70986 18.2199 6.75305 18.2189 6.79576 18.2189ZM9.87303 14.179L9.91919 14.16C10.1496 14.0651 10.3777 13.9705 10.5984 13.8681C10.6296 13.8516 10.6531 13.7443 10.6374 13.7112C10.614 13.67 10.5281 13.6204 10.4891 13.6369C10.3173 13.6865 10.1455 13.7525 9.97374 13.8186C9.83319 13.8764 9.70045 13.9424 9.57552 14.0167C9.53648 14.0415 9.51305 14.1323 9.51305 14.1901C9.51305 14.2112 9.5355 14.229 9.5619 14.2499C9.57669 14.2616 9.59273 14.2743 9.60675 14.2891C9.69561 14.252 9.78446 14.2154 9.87303 14.179ZM8.70098 16.4357C8.69217 16.4232 8.68445 16.4061 8.67701 16.3896C8.64481 16.3181 8.53804 16.3107 8.48235 16.3696C8.25591 16.6008 8.03728 16.8319 7.83426 17.0714C7.80295 17.1045 7.79954 17.1634 7.79606 17.2235C7.79434 17.2533 7.79259 17.2834 7.78741 17.3108C7.80925 17.3031 7.83335 17.2978 7.85783 17.2924C7.91215 17.2804 7.96837 17.2681 8.00605 17.2282C8.1518 17.0796 8.29061 16.9237 8.42943 16.7677C8.49883 16.6898 8.56824 16.6118 8.63852 16.5347C8.66003 16.5234 8.67043 16.5002 8.68248 16.4735C8.68792 16.4614 8.6937 16.4485 8.70098 16.4357ZM3.20394 17.6493C3.21565 17.6575 3.22541 17.6678 3.23517 17.6782C3.24493 17.6885 3.25469 17.6988 3.2664 17.7071C3.49284 17.575 3.71928 17.4429 3.94573 17.3025C3.96915 17.286 3.98477 17.2035 3.96915 17.1787C3.95353 17.1539 3.88326 17.1374 3.85203 17.1539C3.64901 17.2612 3.4538 17.3768 3.2664 17.5007C3.23203 17.5188 3.22287 17.5637 3.21427 17.6058C3.21115 17.6211 3.20809 17.6361 3.20394 17.6493ZM12.1913 16.6983C12.2147 16.8717 12.2928 16.946 12.4021 16.8634C12.6207 16.6983 12.8238 16.5167 13.0268 16.3268C13.2688 16.1039 13.5109 15.8727 13.7451 15.6416C13.8545 15.5425 13.8623 15.4269 13.7686 15.3031C13.679 15.1938 13.6076 15.2517 13.5331 15.3122C13.5232 15.3202 13.5132 15.3283 13.5031 15.3361C13.425 15.3939 13.3469 15.4517 13.2766 15.5177C12.9721 15.8149 12.6598 16.1204 12.3631 16.4341C12.3073 16.4813 12.2714 16.5495 12.2356 16.6178C12.2212 16.6451 12.2069 16.6724 12.1913 16.6983ZM11.5276 13.495C11.5461 13.5146 11.5598 13.5342 11.5763 13.5579L11.59 13.5776C11.6062 13.5776 11.6223 13.5804 11.6379 13.5831C11.6601 13.587 11.681 13.5907 11.6994 13.5859C11.7698 13.561 11.8403 13.5369 11.9106 13.5129C12.0739 13.4571 12.236 13.4017 12.3943 13.3382C12.7535 13.1896 13.1127 13.0327 13.464 12.8676C13.4979 12.8497 13.5195 12.8016 13.5407 12.7545C13.5488 12.7364 13.5569 12.7185 13.5655 12.7025C13.5479 12.6998 13.5287 12.6946 13.5092 12.6893C13.468 12.6781 13.4255 12.6665 13.3938 12.6777C12.8316 12.9089 12.2772 13.14 11.7228 13.3795C11.6662 13.3914 11.6219 13.4251 11.578 13.4584C11.5614 13.4711 11.5448 13.4837 11.5276 13.495ZM12.9799 14.0977C13.1742 14.0671 13.351 14.0365 13.5207 14.0071C13.6716 13.981 13.8168 13.9559 13.9638 13.9326C14.0809 13.9161 14.1356 13.85 14.1277 13.7262C14.1199 13.5941 14.0497 13.5446 13.9325 13.5611C13.8745 13.5699 13.8166 13.5784 13.759 13.5868C13.4912 13.6263 13.2278 13.6651 12.9643 13.7262C12.9018 13.7427 12.8394 13.8831 12.8316 13.9656C12.826 13.995 12.8839 14.0329 12.9318 14.0641C12.9511 14.0767 12.9687 14.0882 12.9799 14.0977ZM11.551 15.4434C11.5661 15.4408 11.5811 15.439 11.5959 15.4372C11.6271 15.4335 11.6572 15.4299 11.6837 15.4186C12.1132 15.2122 12.5427 14.9976 12.9643 14.7829C12.9989 14.7647 13.025 14.7193 13.0551 14.667C13.0658 14.6484 13.077 14.629 13.0892 14.6096C12.7379 14.6013 11.6135 15.2205 11.551 15.4434ZM9.19759 13.4249C9.0857 13.4555 8.92505 13.4993 8.84934 13.2737C9.33943 12.9461 9.88259 12.7745 10.4288 12.602C10.6172 12.5425 10.806 12.4829 10.9931 12.4167C11.3062 12.306 11.6306 12.2234 11.957 12.1658C12.0253 12.5028 12.0199 12.5045 11.7471 12.5877L11.7228 12.5952L10.6296 12.96C10.5392 12.9907 10.4488 13.0219 10.3583 13.0531L10.3574 13.0534C9.97363 13.1856 9.5891 13.3181 9.19759 13.4249ZM9.70826 15.2964C9.74437 15.2868 9.77701 15.2797 9.80706 15.2732C9.95858 15.2403 10.1023 15.1734 10.2443 15.1072C10.2904 15.0858 10.3363 15.0644 10.3822 15.0443L11.145 14.7169C11.2699 14.6674 11.3558 14.6096 11.2933 14.4527C11.2266 14.2941 11.1055 14.3433 11 14.3866L9.76291 14.9001C9.70045 14.9248 9.63798 14.9744 9.59894 15.0322C9.56771 15.0817 9.54428 15.1643 9.5599 15.2138C9.5751 15.2406 9.61661 15.2569 9.65454 15.2719C9.67507 15.28 9.69455 15.2877 9.70826 15.2964ZM9.87057 16.337C9.73299 16.339 9.58831 16.3412 9.5599 16.1385C9.53647 15.9733 9.69264 15.8165 9.89566 15.8165L11 15.8433L11.0156 15.844C11.223 15.8522 11.4343 15.8605 11.4105 16.1121C11.3933 16.3474 11.258 16.3428 11.086 16.337C11.0582 16.336 11.0294 16.335 11 16.335L9.87057 16.337ZM12.7691 5.52597C12.7222 5.51771 12.6988 5.51771 12.6832 5.51771C12.6676 5.51771 12.6442 5.51771 12.6285 5.52597C12.0507 5.71585 11.6056 6.08736 11.2699 6.61574C11.2465 6.64876 11.2777 6.74783 11.3089 6.78085C11.6759 7.23493 12.16 7.4826 12.7144 7.56516C12.7642 7.57042 12.814 7.56897 12.8739 7.56723C12.9079 7.56624 12.9453 7.56516 12.9877 7.56516C12.3318 6.93772 12.3631 6.26074 12.7691 5.52597ZM15.0569 6.16992C14.6197 6.8469 14.0731 7.34225 13.2844 7.51562C13.8544 6.81388 13.7373 6.14515 13.1829 5.45166C13.9247 5.45992 14.5025 5.74062 15.0569 6.16992Z" fill="black"/>
</svg>
