<svg width="117" height="90" viewBox="0 0 117 90" fill="none" xmlns="http://www.w3.org/2000/svg">
<path d="M0 0H117V77.8378L0 90V0Z" fill="#544946"/>
<path d="M23.8781 27.658C23.8781 28.102 23.9861 28.498 24.2021 28.846C24.4301 29.182 24.7061 29.476 25.0301 29.728C25.3661 29.98 25.8161 30.28 26.3801 30.628C26.9921 31.012 27.4721 31.342 27.8201 31.618C28.1801 31.894 28.4801 32.236 28.7201 32.644C28.9721 33.04 29.0981 33.508 29.0981 34.048C29.0981 34.66 28.9361 35.206 28.6121 35.686C28.3001 36.166 27.8501 36.544 27.2621 36.82C26.6861 37.084 26.0261 37.216 25.2821 37.216C24.7781 37.216 24.2561 37.15 23.7161 37.018C23.1881 36.886 22.7861 36.724 22.5101 36.532C22.4021 36.46 22.3421 36.346 22.3301 36.19L22.2221 33.454V33.436C22.2221 33.388 22.2521 33.364 22.3121 33.364C22.3721 33.352 22.4081 33.37 22.4201 33.418C22.8161 34.414 23.2661 35.23 23.7701 35.866C24.2861 36.502 24.9401 36.82 25.7321 36.82C26.2481 36.82 26.6801 36.682 27.0281 36.406C27.3761 36.118 27.5501 35.644 27.5501 34.984C27.5501 34.456 27.4301 33.994 27.1901 33.598C26.9621 33.202 26.6741 32.872 26.3261 32.608C25.9901 32.344 25.5281 32.02 24.9401 31.636C24.3641 31.264 23.9141 30.952 23.5901 30.7C23.2661 30.436 22.9901 30.118 22.7621 29.746C22.5341 29.362 22.4201 28.918 22.4201 28.414C22.4201 27.79 22.5941 27.262 22.9421 26.83C23.2901 26.398 23.7401 26.08 24.2921 25.876C24.8561 25.66 25.4441 25.552 26.0561 25.552C26.4641 25.552 26.8721 25.594 27.2801 25.678C27.6881 25.75 28.0301 25.846 28.3061 25.966C28.4141 26.002 28.4861 26.05 28.5221 26.11C28.5581 26.158 28.5761 26.224 28.5761 26.308L28.6301 28.756C28.6301 28.792 28.5941 28.822 28.5221 28.846C28.4621 28.858 28.4261 28.84 28.4141 28.792C28.1741 28.06 27.8501 27.4 27.4421 26.812C27.0461 26.212 26.4461 25.912 25.6421 25.912C25.1021 25.912 24.6701 26.068 24.3461 26.38C24.0341 26.692 23.8781 27.118 23.8781 27.658ZM44.7912 36.784C44.8272 36.784 44.8452 36.82 44.8452 36.892C44.8452 36.964 44.8272 37 44.7912 37C44.3832 37 44.0532 36.994 43.8012 36.982L42.4872 36.964L40.9572 36.982C40.7412 36.994 40.4532 37 40.0932 37C40.0572 37 40.0392 36.964 40.0392 36.892C40.0392 36.82 40.0572 36.784 40.0932 36.784C40.5492 36.784 40.8792 36.754 41.0832 36.694C41.2872 36.634 41.4252 36.52 41.4972 36.352C41.5692 36.184 41.6052 35.914 41.6052 35.542V31.384H35.4312V35.542C35.4312 35.902 35.4672 36.172 35.5392 36.352C35.6112 36.52 35.7492 36.634 35.9532 36.694C36.1692 36.754 36.5052 36.784 36.9612 36.784C36.9852 36.784 36.9972 36.82 36.9972 36.892C36.9972 36.964 36.9852 37 36.9612 37C36.5532 37 36.2352 36.994 36.0072 36.982L34.5132 36.964L33.1992 36.982C32.9712 36.994 32.6532 37 32.2452 37C32.2212 37 32.2092 36.964 32.2092 36.892C32.2092 36.82 32.2212 36.784 32.2452 36.784C32.6772 36.784 32.9952 36.754 33.1992 36.694C33.4032 36.634 33.5412 36.52 33.6132 36.352C33.6852 36.172 33.7212 35.902 33.7212 35.542V27.208C33.7212 26.848 33.6852 26.584 33.6132 26.416C33.5412 26.248 33.4032 26.134 33.1992 26.074C32.9952 26.002 32.6832 25.966 32.2632 25.966C32.2392 25.966 32.2272 25.93 32.2272 25.858C32.2272 25.786 32.2392 25.75 32.2632 25.75L33.2172 25.768C33.7692 25.792 34.2012 25.804 34.5132 25.804C34.9332 25.804 35.4312 25.792 36.0072 25.768L36.9612 25.75C36.9852 25.75 36.9972 25.786 36.9972 25.858C36.9972 25.93 36.9852 25.966 36.9612 25.966C36.5172 25.966 36.1872 26.002 35.9712 26.074C35.7672 26.146 35.6232 26.272 35.5392 26.452C35.4672 26.62 35.4312 26.884 35.4312 27.244V30.916H41.6052V27.244C41.6052 26.884 41.5692 26.62 41.4972 26.452C41.4252 26.272 41.2812 26.146 41.0652 26.074C40.8612 26.002 40.5372 25.966 40.0932 25.966C40.0572 25.966 40.0392 25.93 40.0392 25.858C40.0392 25.786 40.0572 25.75 40.0932 25.75L40.9572 25.768C41.5332 25.792 42.0432 25.804 42.4872 25.804C42.8112 25.804 43.2492 25.792 43.8012 25.768L44.7912 25.75C44.8272 25.75 44.8452 25.786 44.8452 25.858C44.8452 25.93 44.8272 25.966 44.7912 25.966C44.3592 25.966 44.0412 26.002 43.8372 26.074C43.6452 26.134 43.5132 26.248 43.4412 26.416C43.3692 26.584 43.3332 26.848 43.3332 27.208V35.542C43.3332 35.902 43.3692 36.172 43.4412 36.352C43.5132 36.52 43.6452 36.634 43.8372 36.694C44.0412 36.754 44.3592 36.784 44.7912 36.784ZM59.7981 36.784C59.8581 36.784 59.8881 36.82 59.8881 36.892C59.8881 36.964 59.8581 37 59.7981 37C59.5701 37 59.2041 36.988 58.7001 36.964C58.1961 36.94 57.8301 36.928 57.6021 36.928C57.3021 36.928 56.9481 36.94 56.5401 36.964C56.1321 36.988 55.8141 37 55.5861 37C55.5381 37 55.5141 36.964 55.5141 36.892C55.5141 36.82 55.5381 36.784 55.5861 36.784C55.9341 36.784 56.1861 36.748 56.3421 36.676C56.5101 36.592 56.5941 36.46 56.5941 36.28C56.5941 36.1 56.4921 35.794 56.2881 35.362L54.3441 31.42H51.0861L49.7001 34.534C49.5441 34.894 49.4661 35.218 49.4661 35.506C49.4661 35.926 49.6161 36.244 49.9161 36.46C50.2161 36.676 50.6361 36.784 51.1761 36.784C51.2361 36.784 51.2661 36.82 51.2661 36.892C51.2661 36.964 51.2361 37 51.1761 37C50.9601 37 50.6481 36.988 50.2401 36.964C49.7841 36.94 49.3881 36.928 49.0521 36.928C48.7281 36.928 48.3501 36.94 47.9181 36.964C47.5341 36.988 47.2161 37 46.9641 37C46.9041 37 46.8741 36.964 46.8741 36.892C46.8741 36.82 46.9041 36.784 46.9641 36.784C47.3001 36.784 47.5821 36.718 47.8101 36.586C48.0381 36.454 48.2601 36.22 48.4761 35.884C48.6921 35.536 48.9501 35.026 49.2501 34.354L53.1201 25.642C53.1441 25.606 53.1981 25.588 53.2821 25.588C53.3661 25.588 53.4141 25.606 53.4261 25.642L57.8361 34.534C58.2561 35.398 58.6041 35.992 58.8801 36.316C59.1681 36.628 59.4741 36.784 59.7981 36.784ZM51.2841 30.97H54.1281L52.6341 27.946L51.2841 30.97ZM74.323 25.75C74.347 25.75 74.359 25.786 74.359 25.858C74.359 25.93 74.347 25.966 74.323 25.966C73.843 25.966 73.471 26.14 73.207 26.488C72.943 26.824 72.811 27.31 72.811 27.946V37.252C72.811 37.288 72.781 37.312 72.721 37.324C72.661 37.336 72.619 37.33 72.595 37.306L64.153 27.496V34.822C64.153 35.458 64.279 35.944 64.531 36.28C64.783 36.616 65.149 36.784 65.629 36.784C65.653 36.784 65.665 36.82 65.665 36.892C65.665 36.964 65.653 37 65.629 37C65.305 37 65.059 36.994 64.891 36.982L63.937 36.964L62.875 36.982C62.683 36.994 62.407 37 62.047 37C62.011 37 61.993 36.964 61.993 36.892C61.993 36.82 62.011 36.784 62.047 36.784C62.563 36.784 62.959 36.616 63.235 36.28C63.523 35.944 63.667 35.458 63.667 34.822V26.938C63.331 26.578 63.025 26.326 62.749 26.182C62.485 26.038 62.209 25.966 61.921 25.966C61.897 25.966 61.885 25.93 61.885 25.858C61.885 25.786 61.897 25.75 61.921 25.75L62.641 25.768C62.797 25.78 63.019 25.786 63.307 25.786L64.459 25.768C64.603 25.756 64.777 25.75 64.981 25.75C65.077 25.75 65.149 25.774 65.197 25.822C65.245 25.87 65.317 25.966 65.413 26.11C65.617 26.386 65.767 26.578 65.863 26.686L72.325 34.318V27.946C72.325 27.31 72.199 26.824 71.947 26.488C71.695 26.14 71.335 25.966 70.867 25.966C70.843 25.966 70.831 25.93 70.831 25.858C70.831 25.786 70.843 25.75 70.867 25.75L71.605 25.768C71.989 25.792 72.307 25.804 72.559 25.804C72.799 25.804 73.123 25.792 73.531 25.768L74.323 25.75ZM80.0186 26.128C79.2866 26.128 78.6806 26.356 78.2006 26.812C77.7326 27.256 77.3726 27.934 77.1206 28.846C77.1206 28.87 77.0846 28.882 77.0126 28.882C76.9526 28.882 76.9226 28.864 76.9226 28.828C76.9706 28.36 77.0246 27.76 77.0846 27.028C77.1446 26.284 77.1746 25.726 77.1746 25.354C77.1746 25.294 77.2046 25.264 77.2646 25.264C77.3366 25.264 77.3726 25.294 77.3726 25.354C77.3726 25.618 77.7086 25.75 78.3806 25.75C79.4126 25.786 80.6186 25.804 81.9986 25.804C82.7066 25.804 83.4566 25.792 84.2486 25.768L85.4726 25.75C85.9286 25.75 86.2586 25.72 86.4626 25.66C86.6786 25.6 86.8166 25.48 86.8766 25.3C86.8886 25.252 86.9246 25.228 86.9846 25.228C87.0446 25.228 87.0746 25.252 87.0746 25.3C87.0386 25.672 87.0026 26.236 86.9666 26.992C86.9306 27.748 86.9126 28.36 86.9126 28.828C86.9126 28.864 86.8766 28.882 86.8046 28.882C86.7446 28.882 86.7086 28.864 86.6966 28.828C86.5766 27.904 86.2946 27.226 85.8506 26.794C85.4066 26.35 84.8066 26.128 84.0506 26.128C83.7146 26.128 83.4626 26.158 83.2946 26.218C83.1386 26.278 83.0306 26.386 82.9706 26.542C82.9226 26.686 82.8986 26.92 82.8986 27.244V35.542C82.8986 35.914 82.9346 36.184 83.0066 36.352C83.0786 36.52 83.2226 36.634 83.4386 36.694C83.6546 36.754 83.9966 36.784 84.4646 36.784C84.5006 36.784 84.5186 36.82 84.5186 36.892C84.5186 36.964 84.5006 37 84.4646 37C84.0446 37 83.7146 36.994 83.4746 36.982L81.9986 36.964L80.5946 36.982C80.3426 36.994 79.9946 37 79.5506 37C79.5266 37 79.5146 36.964 79.5146 36.892C79.5146 36.82 79.5266 36.784 79.5506 36.784C80.0186 36.784 80.3606 36.754 80.5766 36.694C80.8046 36.634 80.9546 36.52 81.0266 36.352C81.1106 36.172 81.1526 35.902 81.1526 35.542V27.208C81.1526 26.896 81.1226 26.668 81.0626 26.524C81.0026 26.38 80.8946 26.278 80.7386 26.218C80.5826 26.158 80.3426 26.128 80.0186 26.128ZM93.2783 35.542C93.2783 35.914 93.3083 36.184 93.3683 36.352C93.4283 36.52 93.5483 36.634 93.7283 36.694C93.9203 36.754 94.2203 36.784 94.6283 36.784C94.6643 36.784 94.6823 36.82 94.6823 36.892C94.6823 36.964 94.6643 37 94.6283 37C94.2443 37 93.9383 36.994 93.7103 36.982L92.3783 36.964L91.0823 36.982C90.8543 36.994 90.5423 37 90.1463 37C90.1103 37 90.0923 36.964 90.0923 36.892C90.0923 36.82 90.1103 36.784 90.1463 36.784C90.5543 36.784 90.8483 36.754 91.0283 36.694C91.2203 36.634 91.3523 36.52 91.4243 36.352C91.4963 36.172 91.5323 35.902 91.5323 35.542V27.208C91.5323 26.848 91.4963 26.584 91.4243 26.416C91.3523 26.248 91.2203 26.134 91.0283 26.074C90.8483 26.002 90.5543 25.966 90.1463 25.966C90.1103 25.966 90.0923 25.93 90.0923 25.858C90.0923 25.786 90.1103 25.75 90.1463 25.75L91.0823 25.768C91.6103 25.792 92.0423 25.804 92.3783 25.804C92.7503 25.804 93.2003 25.792 93.7283 25.768L94.6283 25.75C94.6643 25.75 94.6823 25.786 94.6823 25.858C94.6823 25.93 94.6643 25.966 94.6283 25.966C94.2323 25.966 93.9383 26.002 93.7463 26.074C93.5663 26.146 93.4403 26.272 93.3683 26.452C93.3083 26.62 93.2783 26.884 93.2783 27.244V35.542ZM20.9855 53.794C20.9855 54.958 20.8835 55.888 20.6795 56.584C20.4755 57.28 20.1335 57.85 19.6535 58.294C19.1735 58.75 18.4955 59.152 17.6195 59.5H17.6015C17.5655 59.5 17.5355 59.47 17.5115 59.41C17.4875 59.362 17.4875 59.326 17.5115 59.302C18.1595 58.906 18.6095 58.3 18.8615 57.484C19.1135 56.68 19.2395 55.612 19.2395 54.28V45.208C19.2395 44.848 19.2035 44.584 19.1315 44.416C19.0595 44.248 18.9275 44.134 18.7355 44.074C18.5555 44.002 18.2615 43.966 17.8535 43.966C17.8295 43.966 17.8175 43.93 17.8175 43.858C17.8175 43.786 17.8295 43.75 17.8535 43.75L18.8435 43.768C19.3715 43.792 19.7855 43.804 20.0855 43.804C20.4095 43.804 20.8115 43.792 21.2915 43.768L22.1375 43.75C22.1615 43.75 22.1735 43.786 22.1735 43.858C22.1735 43.93 22.1615 43.966 22.1375 43.966C21.8015 43.966 21.5495 44.002 21.3815 44.074C21.2255 44.146 21.1175 44.272 21.0575 44.452C21.0095 44.62 20.9855 44.884 20.9855 45.244V53.794ZM33.3169 52.192C33.3169 52.168 33.3409 52.156 33.3889 52.156C33.4249 52.156 33.4549 52.168 33.4789 52.192C33.5149 52.204 33.5329 52.216 33.5329 52.228C33.4129 53.14 33.3529 53.974 33.3529 54.73C33.3529 54.826 33.3349 54.898 33.2989 54.946C33.2629 54.982 33.1909 55 33.0829 55H25.2709C25.2349 55 25.2169 54.964 25.2169 54.892C25.2169 54.82 25.2349 54.784 25.2709 54.784C25.6789 54.784 25.9729 54.754 26.1529 54.694C26.3449 54.634 26.4709 54.52 26.5309 54.352C26.6029 54.172 26.6389 53.902 26.6389 53.542V45.208C26.6389 44.848 26.6029 44.584 26.5309 44.416C26.4709 44.248 26.3449 44.134 26.1529 44.074C25.9609 44.002 25.6669 43.966 25.2709 43.966C25.2349 43.966 25.2169 43.93 25.2169 43.858C25.2169 43.786 25.2349 43.75 25.2709 43.75H32.7589C32.8789 43.75 32.9389 43.804 32.9389 43.912L32.9749 46.252C32.9749 46.276 32.9389 46.294 32.8669 46.306C32.8069 46.318 32.7709 46.306 32.7589 46.27C32.4709 44.902 31.6369 44.218 30.2569 44.218H29.5369C29.1049 44.218 28.7989 44.296 28.6189 44.452C28.4389 44.608 28.3489 44.872 28.3489 45.244V48.916H30.0769C31.3969 48.916 32.0569 48.472 32.0569 47.584C32.0569 47.548 32.0869 47.53 32.1469 47.53C32.2189 47.53 32.2549 47.548 32.2549 47.584L32.2369 49.15L32.2549 49.996C32.2789 50.38 32.2909 50.692 32.2909 50.932C32.2909 50.956 32.2549 50.968 32.1829 50.968C32.1109 50.968 32.0749 50.956 32.0749 50.932C32.0749 49.9 31.4029 49.384 30.0589 49.384H28.3489V53.47C28.3489 53.866 28.4209 54.142 28.5649 54.298C28.7209 54.454 28.9909 54.532 29.3749 54.532H30.2569C31.8649 54.532 32.8849 53.752 33.3169 52.192ZM52.5926 43.75C52.6166 43.75 52.6286 43.786 52.6286 43.858C52.6286 43.93 52.6166 43.966 52.5926 43.966C52.1606 43.966 51.7646 44.128 51.4046 44.452C51.0446 44.776 50.7446 45.244 50.5046 45.856L47.0126 54.982C47.0006 55.03 46.9346 55.054 46.8146 55.054C46.6946 55.054 46.6286 55.03 46.6166 54.982L44.2946 50.014L42.4046 54.982C42.3926 55.03 42.3266 55.054 42.2066 55.054C42.0866 55.054 42.0206 55.03 42.0086 54.982L37.4546 45.244C37.2026 44.716 36.9866 44.374 36.8066 44.218C36.6386 44.05 36.3806 43.966 36.0326 43.966C35.9966 43.966 35.9786 43.93 35.9786 43.858C35.9786 43.786 35.9966 43.75 36.0326 43.75L36.5006 43.768C36.7646 43.792 37.0646 43.804 37.4006 43.804C38.0726 43.804 38.6846 43.792 39.2366 43.768C39.4046 43.756 39.6146 43.75 39.8666 43.75C39.9026 43.75 39.9206 43.786 39.9206 43.858C39.9206 43.93 39.9026 43.966 39.8666 43.966C39.5426 43.966 39.3086 44.002 39.1646 44.074C39.0326 44.134 38.9666 44.254 38.9666 44.434C38.9666 44.638 39.0746 44.974 39.2906 45.442L42.7286 52.768L44.0246 49.42L42.0626 45.244C41.8466 44.8 41.6426 44.476 41.4506 44.272C41.2706 44.068 41.0546 43.966 40.8026 43.966C40.7666 43.966 40.7486 43.93 40.7486 43.858C40.7486 43.786 40.7666 43.75 40.8026 43.75L41.2346 43.768C41.4986 43.792 41.7626 43.804 42.0266 43.804C42.5906 43.804 43.0886 43.792 43.5206 43.768C43.6406 43.756 43.7966 43.75 43.9886 43.75C44.0246 43.75 44.0426 43.786 44.0426 43.858C44.0426 43.93 44.0246 43.966 43.9886 43.966C43.7966 43.966 43.6586 43.99 43.5746 44.038C43.5026 44.074 43.4666 44.146 43.4666 44.254C43.4666 44.446 43.6106 44.842 43.8986 45.442L44.8706 47.494L45.5186 45.784C45.7346 45.22 45.8426 44.794 45.8426 44.506C45.8426 44.146 45.6626 43.966 45.3026 43.966C45.2666 43.966 45.2486 43.93 45.2486 43.858C45.2486 43.786 45.2666 43.75 45.3026 43.75C45.4106 43.75 45.5366 43.762 45.6806 43.786C45.8246 43.798 46.0886 43.804 46.4726 43.804C46.6886 43.804 46.9406 43.792 47.2286 43.768L47.9306 43.75C47.9546 43.75 47.9666 43.786 47.9666 43.858C47.9666 43.93 47.9546 43.966 47.9306 43.966C47.5226 43.966 47.1626 44.116 46.8506 44.416C46.5386 44.716 46.2566 45.196 46.0046 45.856L45.1406 48.088L47.3546 52.768L49.9826 45.91C50.1026 45.598 50.1626 45.304 50.1626 45.028C50.1626 44.692 50.0606 44.434 49.8566 44.254C49.6646 44.062 49.3886 43.966 49.0286 43.966C48.9926 43.966 48.9746 43.93 48.9746 43.858C48.9746 43.786 48.9926 43.75 49.0286 43.75L49.8206 43.768C50.2526 43.792 50.6426 43.804 50.9906 43.804C51.2306 43.804 51.5066 43.792 51.8186 43.768L52.5926 43.75ZM62.9241 52.192C62.9241 52.168 62.9481 52.156 62.9961 52.156C63.0321 52.156 63.0621 52.168 63.0861 52.192C63.1221 52.204 63.1401 52.216 63.1401 52.228C63.0201 53.14 62.9601 53.974 62.9601 54.73C62.9601 54.826 62.9421 54.898 62.9061 54.946C62.8701 54.982 62.7981 55 62.6901 55H54.8781C54.8421 55 54.8241 54.964 54.8241 54.892C54.8241 54.82 54.8421 54.784 54.8781 54.784C55.2861 54.784 55.5801 54.754 55.7601 54.694C55.9521 54.634 56.0781 54.52 56.1381 54.352C56.2101 54.172 56.2461 53.902 56.2461 53.542V45.208C56.2461 44.848 56.2101 44.584 56.1381 44.416C56.0781 44.248 55.9521 44.134 55.7601 44.074C55.5681 44.002 55.2741 43.966 54.8781 43.966C54.8421 43.966 54.8241 43.93 54.8241 43.858C54.8241 43.786 54.8421 43.75 54.8781 43.75H62.3661C62.4861 43.75 62.5461 43.804 62.5461 43.912L62.5821 46.252C62.5821 46.276 62.5461 46.294 62.4741 46.306C62.4141 46.318 62.3781 46.306 62.3661 46.27C62.0781 44.902 61.2441 44.218 59.8641 44.218H59.1441C58.7121 44.218 58.4061 44.296 58.2261 44.452C58.0461 44.608 57.9561 44.872 57.9561 45.244V48.916H59.6841C61.0041 48.916 61.6641 48.472 61.6641 47.584C61.6641 47.548 61.6941 47.53 61.7541 47.53C61.8261 47.53 61.8621 47.548 61.8621 47.584L61.8441 49.15L61.8621 49.996C61.8861 50.38 61.8981 50.692 61.8981 50.932C61.8981 50.956 61.8621 50.968 61.7901 50.968C61.7181 50.968 61.6821 50.956 61.6821 50.932C61.6821 49.9 61.0101 49.384 59.6661 49.384H57.9561V53.47C57.9561 53.866 58.0281 54.142 58.1721 54.298C58.3281 54.454 58.5981 54.532 58.9821 54.532H59.8641C61.4721 54.532 62.4921 53.752 62.9241 52.192ZM69.2578 53.47C69.2578 53.794 69.2818 54.028 69.3298 54.172C69.3898 54.316 69.4978 54.412 69.6538 54.46C69.8098 54.508 70.0618 54.532 70.4098 54.532H71.4898C72.3418 54.532 73.0618 54.298 73.6498 53.83C74.2378 53.35 74.6278 52.708 74.8198 51.904C74.8318 51.868 74.8678 51.856 74.9278 51.868C74.9878 51.868 75.0178 51.886 75.0178 51.922C74.9098 53.05 74.8558 53.986 74.8558 54.73C74.8558 54.826 74.8378 54.898 74.8018 54.946C74.7658 54.982 74.6938 55 74.5858 55H66.1618C66.1378 55 66.1258 54.964 66.1258 54.892C66.1258 54.82 66.1378 54.784 66.1618 54.784C66.5698 54.784 66.8638 54.754 67.0438 54.694C67.2358 54.634 67.3618 54.52 67.4218 54.352C67.4938 54.172 67.5298 53.902 67.5298 53.542V45.208C67.5298 44.848 67.4938 44.584 67.4218 44.416C67.3618 44.248 67.2358 44.134 67.0438 44.074C66.8518 44.002 66.5578 43.966 66.1618 43.966C66.1378 43.966 66.1258 43.93 66.1258 43.858C66.1258 43.786 66.1378 43.75 66.1618 43.75L67.0798 43.768C67.6078 43.792 68.0398 43.804 68.3758 43.804C68.7358 43.804 69.1798 43.792 69.7078 43.768L70.6078 43.75C70.6438 43.75 70.6618 43.786 70.6618 43.858C70.6618 43.93 70.6438 43.966 70.6078 43.966C70.2118 43.966 69.9178 44.002 69.7258 44.074C69.5458 44.134 69.4198 44.254 69.3478 44.434C69.2878 44.602 69.2578 44.866 69.2578 45.226V53.47ZM89.5261 54.784C89.5621 54.784 89.5801 54.82 89.5801 54.892C89.5801 54.964 89.5621 55 89.5261 55H86.6281C86.3521 55 85.8361 54.502 85.0801 53.506C84.3361 52.498 83.4241 51.094 82.3441 49.294C82.1521 49.33 81.9541 49.348 81.7501 49.348C81.3061 49.348 80.9941 49.342 80.8141 49.33V53.542C80.8141 53.914 80.8441 54.184 80.9041 54.352C80.9761 54.52 81.1021 54.634 81.2821 54.694C81.4741 54.754 81.7741 54.784 82.1821 54.784C82.2061 54.784 82.2181 54.82 82.2181 54.892C82.2181 54.964 82.2061 55 82.1821 55C81.7861 55 81.4801 54.994 81.2641 54.982L79.9321 54.964L78.6361 54.982C78.4081 54.994 78.0961 55 77.7001 55C77.6641 55 77.6461 54.964 77.6461 54.892C77.6461 54.82 77.6641 54.784 77.7001 54.784C78.1081 54.784 78.4021 54.754 78.5821 54.694C78.7741 54.634 78.9061 54.52 78.9781 54.352C79.0501 54.172 79.0861 53.902 79.0861 53.542V45.208C79.0861 44.848 79.0501 44.584 78.9781 44.416C78.9181 44.248 78.7921 44.134 78.6001 44.074C78.4081 44.002 78.1141 43.966 77.7181 43.966C77.6941 43.966 77.6821 43.93 77.6821 43.858C77.6821 43.786 77.6941 43.75 77.7181 43.75L78.6541 43.768C79.1821 43.792 79.6081 43.804 79.9321 43.804C80.2921 43.804 80.6701 43.786 81.0661 43.75C81.2101 43.738 81.3841 43.726 81.5881 43.714C81.7921 43.702 82.0141 43.696 82.2541 43.696C83.3221 43.696 84.1441 43.894 84.7201 44.29C85.2961 44.686 85.5841 45.244 85.5841 45.964C85.5841 46.528 85.4161 47.062 85.0801 47.566C84.7441 48.07 84.3061 48.478 83.7661 48.79C84.7501 50.302 85.5721 51.49 86.2321 52.354C86.9041 53.206 87.4981 53.824 88.0141 54.208C88.5301 54.592 89.0341 54.784 89.5261 54.784ZM80.8141 48.826C81.1021 48.874 81.4501 48.898 81.8581 48.898C82.5781 48.898 83.0821 48.736 83.3701 48.412C83.6581 48.088 83.8021 47.494 83.8021 46.63C83.8021 45.658 83.6401 44.986 83.3161 44.614C82.9921 44.23 82.5361 44.038 81.9481 44.038C81.5161 44.038 81.2161 44.122 81.0481 44.29C80.8921 44.458 80.8141 44.776 80.8141 45.244V48.826ZM101.133 43.75C101.157 43.75 101.169 43.786 101.169 43.858C101.169 43.93 101.157 43.966 101.133 43.966C100.737 43.966 100.287 44.176 99.7827 44.596C99.2787 45.004 98.8287 45.532 98.4327 46.18L96.3807 49.51V53.542C96.3807 53.914 96.4107 54.184 96.4707 54.352C96.5427 54.52 96.6687 54.634 96.8487 54.694C97.0407 54.754 97.3407 54.784 97.7487 54.784C97.7847 54.784 97.8027 54.82 97.8027 54.892C97.8027 54.964 97.7847 55 97.7487 55C97.3527 55 97.0467 54.994 96.8307 54.982L95.5167 54.964L94.2207 54.982C93.9807 54.994 93.6627 55 93.2667 55C93.2427 55 93.2307 54.964 93.2307 54.892C93.2307 54.82 93.2427 54.784 93.2667 54.784C93.6747 54.784 93.9687 54.754 94.1487 54.694C94.3407 54.634 94.4727 54.52 94.5447 54.352C94.6167 54.172 94.6527 53.902 94.6527 53.542V49.834L91.9167 45.658C91.5087 45.022 91.1547 44.584 90.8547 44.344C90.5667 44.092 90.2847 43.966 90.0087 43.966C89.9727 43.966 89.9547 43.93 89.9547 43.858C89.9547 43.786 89.9727 43.75 90.0087 43.75L90.6027 43.768C90.8667 43.792 91.0587 43.804 91.1787 43.804C91.5867 43.804 92.1627 43.792 92.9067 43.768L94.0227 43.75C94.0467 43.75 94.0587 43.786 94.0587 43.858C94.0587 43.93 94.0467 43.966 94.0227 43.966C93.5307 43.966 93.2847 44.134 93.2847 44.47C93.2847 44.638 93.3567 44.83 93.5007 45.046L96.1107 49.06L97.9467 46.054C98.2467 45.562 98.3967 45.13 98.3967 44.758C98.3967 44.23 98.0667 43.966 97.4067 43.966C97.3827 43.966 97.3707 43.93 97.3707 43.858C97.3707 43.786 97.3827 43.75 97.4067 43.75L98.3427 43.768C98.8467 43.792 99.3087 43.804 99.7287 43.804C99.9327 43.804 100.179 43.792 100.467 43.768L101.133 43.75Z" fill="white"/>
</svg>
