<svg width="16" height="16" viewBox="0 0 16 16" fill="none" xmlns="http://www.w3.org/2000/svg">
<path d="M10.4823 4.77942L10.8174 4.40832L10.4824 4.77942C10.5226 4.8158 10.5669 4.84758 10.6142 4.87416L13.1622 6.30466L10.5907 8.73075C10.3998 8.91085 10.3203 9.17954 10.3824 9.43452L11.1108 12.4242L8.23102 12.1044C8.23101 12.1044 8.231 12.1044 8.231 12.1044C8.17743 12.0985 8.12339 12.0985 8.06988 12.1044L4.7829 12.4694L2.51542 9.05839L2.77228 6.51037L5.68665 4.87416C5.73399 4.84758 5.77822 4.81581 5.81852 4.77942C5.81852 4.77941 5.81852 4.77941 5.81852 4.77941L8.15043 2.67369L10.4823 4.77942Z" stroke="#65635F"/>
</svg>
