<svg width="17" height="18" viewBox="0 0 17 18" fill="none" xmlns="http://www.w3.org/2000/svg">
<path fill-rule="evenodd" clip-rule="evenodd" d="M7.05272 0.96875C3.36442 0.96875 0.375 3.95817 0.375 7.64647C0.375 11.3348 3.36442 14.3242 7.05272 14.3242C8.5754 14.3242 9.97897 13.8147 11.1022 12.9568L15.8791 17.7337L16.763 16.8498L12.0214 12.1082C13.084 10.9257 13.7304 9.36163 13.7304 7.64647C13.7304 3.95817 10.741 0.96875 7.05272 0.96875ZM1.625 7.64647C1.625 4.64852 4.05477 2.21875 7.05272 2.21875C10.0507 2.21875 12.4804 4.64852 12.4804 7.64647C12.4804 10.6444 10.0507 13.0742 7.05272 13.0742C4.05477 13.0742 1.625 10.6444 1.625 7.64647Z" fill="#161412"/>
</svg>
