<?xml version="1.0" standalone="no"?>
<!DOCTYPE svg PUBLIC "-//W3C//DTD SVG 20010904//EN"
 "http://www.w3.org/TR/2001/REC-SVG-20010904/DTD/svg10.dtd">
<svg version="1.0" xmlns="http://www.w3.org/2000/svg"
 width="936.000000pt" height="936.000000pt" viewBox="0 0 936.000000 936.000000"
 preserveAspectRatio="xMidYMid meet">
<metadata>
Created by potrace 1.14, written by Peter Selinger 2001-2017
</metadata>
<g transform="translate(0.000000,936.000000) scale(0.100000,-0.100000)"
fill="#000000" stroke="none">
<path d="M0 4679 l0 -3602 77 6 c67 5 407 40 753 77 52 5 160 17 240 25 80 8
188 20 240 25 52 6 203 21 335 35 132 14 283 29 335 35 95 10 278 29 725 75
132 14 328 34 435 45 107 11 258 27 335 35 170 18 283 30 480 50 83 8 213 22
290 30 208 22 706 74 815 85 52 5 160 16 240 24 80 9 188 20 240 26 152 15
462 48 625 65 167 17 532 55 820 85 243 25 629 65 815 85 159 16 258 27 485
50 83 8 211 22 285 30 74 8 270 28 435 45 165 17 312 33 328 36 l27 6 0 3114
0 3114 -4680 0 -4680 0 0 -3601z m6563 1536 c341 0 356 1 377 20 l23 20 -6
-55 c-4 -30 -7 -93 -8 -140 l-1 -85 -17 55 c-10 31 -26 68 -36 83 -22 34 -87
73 -137 81 -46 8 -114 -9 -122 -30 -3 -9 -6 -190 -6 -403 0 -357 1 -389 18
-403 9 -9 26 -18 37 -21 11 -2 -45 -5 -125 -5 -103 0 -136 2 -113 9 22 6 34
18 42 41 16 46 15 745 -2 778 -16 32 -66 43 -136 29 -44 -9 -63 -20 -101 -58
-28 -28 -56 -69 -69 -102 l-22 -54 5 50 c3 28 8 89 12 138 6 74 9 84 20 70 11
-17 41 -18 367 -18z m-4328 -8 l40 -14 3 -104 2 -104 -24 53 c-65 137 -117
177 -218 170 -49 -4 -64 -9 -89 -35 -41 -40 -53 -94 -34 -158 18 -63 54 -98
210 -203 156 -104 195 -156 195 -255 0 -115 -85 -212 -208 -238 -80 -16 -201
-6 -267 25 l-52 24 -5 113 c-3 63 -4 115 -3 116 1 2 19 -31 39 -72 70 -136
140 -194 236 -195 126 0 186 117 126 245 -30 63 -59 90 -204 190 -96 67 -123
91 -149 135 -79 130 -13 271 147 315 64 18 193 14 255 -8z m2459 -820 c10 -15
31 -34 45 -42 23 -13 12 -14 -114 -14 -94 0 -133 3 -117 9 38 16 27 58 -68
249 l-90 181 -133 0 -134 0 -62 -137 c-33 -76 -64 -153 -67 -170 -12 -60 26
-114 87 -126 13 -2 -39 -5 -116 -5 -126 -1 -137 0 -109 12 55 24 72 57 274
512 78 176 149 332 157 349 l16 29 206 -410 c113 -225 215 -422 225 -437z
m-1820 809 c-17 -8 -34 -21 -38 -31 -3 -9 -6 -95 -6 -191 l0 -174 250 0 250 0
0 178 c0 191 -6 216 -53 225 -12 2 41 4 118 5 77 0 129 -3 115 -7 -48 -13 -50
-29 -50 -431 0 -402 2 -418 50 -431 14 -4 -38 -7 -115 -7 -77 0 -131 3 -120 5
53 13 55 21 55 235 l0 198 -250 0 -250 0 0 -193 c0 -207 5 -231 53 -240 12 -2
-41 -4 -118 -4 -77 -1 -131 2 -120 4 11 3 28 12 38 21 16 14 17 47 17 412 0
365 -1 398 -17 412 -10 9 -27 18 -38 21 -11 2 43 5 120 5 126 1 137 0 109 -12z
m2360 -14 c11 -15 139 -168 285 -341 l266 -314 3 274 c1 151 0 288 -3 305 -7
38 -39 82 -69 94 -13 6 20 9 94 9 104 0 112 -1 85 -13 -17 -7 -40 -26 -50 -42
-19 -27 -20 -53 -25 -444 l-5 -414 -340 394 -340 395 -3 -310 c-1 -171 0 -324
3 -341 7 -38 39 -82 69 -94 13 -6 -23 -9 -99 -8 -66 0 -111 2 -100 5 11 3 31
15 44 26 49 45 51 62 51 425 l0 338 -27 27 c-16 14 -44 33 -63 41 -34 15 -31
15 85 15 119 0 120 0 139 -27z m2276 21 c-8 -3 -23 -12 -32 -21 -17 -14 -18
-46 -18 -412 0 -417 1 -423 45 -433 11 -3 -41 -5 -115 -5 -74 0 -124 3 -110 7
48 13 50 30 50 426 0 204 -3 381 -7 394 -3 13 -19 29 -37 37 -28 12 -18 13
104 13 74 0 128 -3 120 -6z m-766 -1457 c28 -15 60 -38 70 -53 24 -33 32 -109
17 -156 -15 -46 -71 -118 -105 -136 -14 -8 -26 -18 -26 -24 0 -5 42 -70 93
-145 111 -165 222 -286 292 -318 l50 -24 -111 0 -112 0 -52 57 c-43 47 -131
174 -246 356 -24 37 -25 37 -89 37 l-65 0 0 -196 c0 -204 4 -228 43 -244 14
-6 -26 -9 -113 -8 -74 0 -126 3 -115 5 11 3 28 12 38 21 16 14 17 46 17 410 0
354 -2 397 -17 414 -9 10 -23 19 -32 20 -36 5 241 15 323 12 71 -2 99 -8 140
-28z m-5030 14 c-12 -5 -26 -15 -30 -22 -5 -7 -11 -222 -14 -478 -5 -421 -8
-470 -25 -518 -24 -70 -89 -140 -165 -181 -62 -33 -92 -38 -46 -7 36 23 73 91
90 166 13 53 16 149 16 536 0 436 -1 472 -17 486 -10 9 -25 18 -33 21 -8 3 44
5 115 6 83 0 122 -3 109 -9z m916 -82 l0 -93 -24 51 c-37 80 -100 114 -212
114 -74 0 -108 -13 -123 -47 -7 -14 -11 -88 -11 -185 l0 -161 113 5 c122 5
161 18 182 57 14 25 14 24 15 -30 0 -31 2 -85 5 -120 3 -43 2 -56 -4 -38 -29
86 -56 99 -201 99 l-111 0 3 -190 c3 -215 5 -219 81 -227 146 -17 250 28 301
130 16 32 30 56 31 55 1 -2 -3 -49 -8 -105 l-10 -103 -296 1 c-163 1 -286 4
-274 6 47 9 48 13 51 407 4 406 0 438 -46 454 -19 8 55 11 256 11 l282 1 0
-92z m501 76 c-17 -13 -22 -23 -18 -43 7 -34 293 -645 304 -648 4 -2 31 57 59
129 59 155 67 110 -62 375 -64 133 -89 175 -111 187 -27 14 -22 15 81 16 94 0
107 -2 96 -15 -7 -8 -9 -24 -5 -37 13 -40 108 -238 114 -238 12 0 81 204 81
237 0 20 -7 36 -17 42 -13 8 6 10 72 10 85 0 88 -1 59 -13 -17 -8 -44 -30 -59
-50 -25 -33 -115 -245 -115 -271 0 -18 167 -369 177 -372 11 -4 233 578 233
609 0 34 -22 71 -50 85 -21 11 -8 13 95 12 109 0 117 -1 89 -13 -59 -26 -98
-88 -164 -259 -190 -502 -236 -617 -245 -617 -5 0 -51 89 -101 198 -50 108
-95 197 -100 197 -4 0 -42 -89 -83 -198 -42 -108 -80 -196 -86 -194 -5 2 -95
186 -200 409 -104 222 -198 417 -208 432 -10 15 -28 31 -40 36 -15 6 20 9 103
9 118 1 123 0 101 -15z m1868 -81 l-1 -98 -15 43 c-31 89 -103 132 -222 132
-71 0 -116 -19 -125 -52 -3 -13 -6 -94 -6 -182 l0 -159 113 5 c124 5 169 21
186 68 7 19 10 5 10 -60 1 -47 4 -103 6 -125 l6 -40 -18 44 c-27 66 -63 81
-195 81 l-108 0 0 -184 c0 -224 1 -228 102 -234 142 -9 235 35 283 132 15 31
28 56 29 56 0 0 -3 -47 -8 -105 l-10 -105 -295 1 c-163 1 -286 4 -273 6 45 9
47 25 47 423 0 206 -3 387 -7 402 -5 16 -19 30 -35 36 -20 8 53 11 255 11
l282 1 -1 -97z m581 86 c-13 -6 -28 -15 -32 -22 -4 -7 -8 -188 -8 -403 0 -352
2 -393 17 -405 22 -19 214 -19 267 0 54 19 115 77 142 136 l24 50 0 -45 c0
-25 -3 -75 -7 -112 l-6 -68 -321 1 c-177 1 -310 4 -296 8 48 13 50 30 50 426
0 204 -3 381 -7 394 -3 13 -19 29 -37 37 -28 12 -18 13 104 13 99 0 128 -3
110 -10z m1898 0 c-36 -21 -20 -61 95 -237 87 -132 116 -170 124 -160 36 44
172 284 177 313 8 41 -6 72 -37 85 -14 6 21 9 103 9 l125 0 -36 -19 c-64 -34
-127 -110 -229 -276 l-100 -161 1 -169 c0 -189 9 -234 49 -245 14 -4 -36 -7
-110 -7 -74 0 -124 3 -110 7 43 12 50 42 50 225 l0 168 -126 192 c-125 190
-181 260 -219 276 -12 5 35 9 120 9 100 0 135 -3 123 -10z"/>
<path d="M4151 5925 c-28 -63 -51 -117 -51 -120 0 -3 52 -5 115 -5 71 0 115 4
115 10 0 18 -110 230 -119 230 -5 0 -32 -52 -60 -115z"/>
<path d="M6494 4752 c-28 -18 -34 -56 -34 -215 l0 -165 40 -7 c49 -8 116 2
152 23 40 23 53 65 53 172 0 108 -15 148 -68 180 -32 20 -120 27 -143 12z"/>
</g>
</svg>
